/* XPM */
static char * apply_tactic_xpm[] = {
"32 32 4 1",
" 	c None",
".	c #37D802",
"+	c #FFFFFF",
"@	c #4CDC1D",
"                                ",
"                                ",
"                                ",
"                                ",
"                                ",
"                                ",
"            ........            ",
"          ............          ",
"         ..............         ",
"        ................        ",
"       ..................       ",
"       ..................       ",
"      .....++++.......+...      ",
"      ....++..+.......+...      ",
"      ....+...+..++...+...      ",
"      ....+.....+..+..+...      ",
"      ....+..++.+..+..+...      ",
"      ....++..+.+..+......      ",
"      ....@++++..++@..+...      ",
"      ....................      ",
"       ..................       ",
"       ..................       ",
"        ................        ",
"         ..............         ",
"          ............          ",
"            ........            ",
"                                ",
"                                ",
"                                ",
"                                ",
"                                ",
"                                "};
