/* XPM */
static char * drive_xpm[] = {
"32 32 16 1",
" 	c None",
".	c #1F8BD3",
"+	c #F9F34F",
"@	c #FFF64C",
"#	c #D1E067",
"$	c #84BB95",
"%	c #3C99C1",
"&	c #1ED840",
"*	c #939393",
"=	c #FFFFFF",
"-	c #AA5B0B",
";	c #C0C0C0",
">	c #04080A",
",	c #000000",
"'	c #FF0000",
")	c #C00000",
".........................+@@@@@@",
".........................#@@@@@@",
".........................$@@@@@@",
"..........................#@@@@@",
"..........................%#@@@@",
"............................$#++",
"................................",
"................................",
"................................",
"&&&&&&&&&******=*******&&&&&&&&&",
"&&&&&&&&&******=*******&&&&&&&&&",
"&&&&&&&&*******=********&&&&&&&&",
"&&&&&&&&****************&&&&&&&&",
"&&&&&&&********=*********&&&&&&&",
"&&&&&&&********=*********&&&&&&&",
"&&&&&&*********=**********&&&&&&",
"&&&&&&*********************&&&&&",
"&&&&&********-----*********&&&&&",
"&&&&&******---------********&&&&",
"&&&&******-----------*******&&&&",
"&&&&*****---**;;;**---*******&&&",
"&&&******--***;;;***--*******&&&",
">>>>>>>*---***;;;***---*>>>>>>>>",
",,,,,,,,-->>>>;,;>>>>--,,,,,,,,,",
">>;;;>>>-->>>;,,,;>>>-->>;=,')>>",
">>>>>>>>-->>;;;,;;;>>-->;==,'')>",
">>;;;>>>-->;;;>>>;;;>-->===,'''>",
">>>>>>>>>--;;>>>>>;;-->>===,'''>",
">>;;;>>>>--->>>>>>>--->>=======>",
">>>>>>>>>>---->>>---->>>;=====;>",
">>;;;>>>>>>--------->>>>>;===;>>",
">>>>>>>>>>>>>----->>>>>>>>>>>>>>"};
