/* XPM */
static char * graph_xpm[] = {
"32 32 7 1",
" 	c None",
".	c #CCCCCC",
"+	c #000000",
"@	c #EF2B2B",
"#	c #FFFFFF",
"$	c #2BEF42",
"%	c #F4F469",
"................................",
".....+..........................",
"....+++.........................",
"...+++++........................",
"...+++++........................",
"....+++.........................",
"....+++.........................",
"....+++@@@@@....................",
"....+++####@@...................",
"....+++#####@@........$$$$$$....",
"....+++######@.......$$.........",
"....+++######@.......$..........",
"....+++######@@.....$$..........",
"....+++#######@....$$...........",
"....+++#######@....$............",
"....+++#######@@@@$$@@@@@@@@....",
"....+++####%%%##$$..............",
"....+++##%%%#%%$$...............",
"....+++#%%####$$%..........%....",
"....+++%%####$$.%%.......%%.....",
"....+++%####$$....%%....%%......",
"....+++###$$$......%%%%%%.......",
"....+++#$$$.....................",
"....+++$$.......................",
"....+++$...................++...",
"....++++++++++++++++++++++++++..",
"....+++++++++++++++++++++++++++.",
"....++++++++++++++++++++++++++..",
"...........................++...",
"................................",
"................................",
"................................"};
