/* XPM */
static char * pause_xpm[] = {
"32 32 9 1",
" 	c None",
".	c #020204",
"+	c #8E8E8C",
"@	c #525235",
"#	c #DCDA94",
"$	c #787878",
"%	c #363634",
"&	c #FEFEFC",
"*	c #626264",
"                                ",
"                                ",
"                                ",
"                                ",
"                                ",
"                                ",
"      ........   ........       ",
"      +######.   +######.       ",
"      +######.   +######.       ",
"      +######.   +######.       ",
"      +######.   +######.       ",
"      +######.   +######.       ",
"      +######.   +######.       ",
"      +######.   +######.       ",
"      +######.   +######.       ",
"      +######.   +######.       ",
"      +######.   +######.       ",
"      +######.   +######.       ",
"      +######.   +######.       ",
"      +######.   +######.       ",
"      +######.   +######.       ",
"      +######.   +######.       ",
"      +######.   +######.       ",
"      +######.   +######.       ",
"      +######.   +######.       ",
"      +++++++.   +++++++.       ",
"                                ",
"                                ",
"                                ",
"                                ",
"                                ",
"                                "};
