/* XPM */
static char * refbox_xpm[] = {
"32 32 243 2",
"  	c None",
". 	c #826E4F",
"+ 	c #725019",
"@ 	c #7C5013",
"# 	c #8D6830",
"$ 	c #B6A076",
"% 	c #6F5E43",
"& 	c #875C14",
"* 	c #9E6513",
"= 	c #9E681C",
"- 	c #9E6C21",
"; 	c #9A681A",
"> 	c #9C6316",
", 	c #986C1B",
"' 	c #624C36",
") 	c #724F1F",
"! 	c #966319",
"~ 	c #9D6719",
"{ 	c #97692B",
"] 	c #C2A476",
"^ 	c #9D8369",
"/ 	c #AE8F6A",
"( 	c #875D17",
"_ 	c #9E641B",
": 	c #8A5D19",
"< 	c #524429",
"[ 	c #8B5C1F",
"} 	c #9D6612",
"| 	c #9F651C",
"1 	c #7E5A15",
"2 	c #CAB495",
"3 	c #BAA48C",
"4 	c #CEB599",
"5 	c #E2C8AC",
"6 	c #7A654E",
"7 	c #6B4E23",
"8 	c #786954",
"9 	c #595148",
"0 	c #9B6617",
"a 	c #946415",
"b 	c #9C6719",
"c 	c #745025",
"d 	c #E8D3B3",
"e 	c #D5BA9D",
"f 	c #E8CEB1",
"g 	c #ECCFB0",
"h 	c #EDCDB3",
"i 	c #E3CEB7",
"j 	c #D4BC9F",
"k 	c #C7B39E",
"l 	c #6C6353",
"m 	c #D3D0CC",
"n 	c #8C8170",
"o 	c #9D9993",
"p 	c #6F5C40",
"q 	c #9B6719",
"r 	c #754F18",
"s 	c #764E15",
"t 	c #6C4E2B",
"u 	c #E6D2AC",
"v 	c #E8CBB7",
"w 	c #E9CFB0",
"x 	c #DDC5AA",
"y 	c #EDCFAC",
"z 	c #E3C9AC",
"A 	c #C3B398",
"B 	c #ACA59C",
"C 	c #E2C9A9",
"D 	c #AD9D88",
"E 	c #837B71",
"F 	c #927D67",
"G 	c #7A5312",
"H 	c #604115",
"I 	c #524433",
"J 	c #826E56",
"K 	c #E9CFB1",
"L 	c #9B8A76",
"M 	c #EDCFB0",
"N 	c #E9D0AF",
"O 	c #62594F",
"P 	c #ABA298",
"Q 	c #E8CCA9",
"R 	c #AF9D86",
"S 	c #8E857A",
"T 	c #9F8C73",
"U 	c #8A7A62",
"V 	c #594638",
"W 	c #DAC7A9",
"X 	c #ECD4B5",
"Y 	c #FFFFFF",
"Z 	c #000000",
"` 	c #EAD1AB",
" .	c #ECD1B3",
"..	c #8A7B68",
"+.	c #908477",
"@.	c #EDD0AD",
"#.	c #D9C4AB",
"$.	c #B5B5B5",
"%.	c #9A9992",
"&.	c #D2BBA4",
"*.	c #E6CEA8",
"=.	c #D7C0A2",
"-.	c #EFD2B2",
";.	c #EBD0AD",
">.	c #C1AB91",
",.	c #E7CDA8",
"'.	c #B9A68C",
").	c #CEB89D",
"!.	c #9C8977",
"~.	c #9F8F79",
"{.	c #CAB397",
"].	c #5C4F45",
"^.	c #898073",
"/.	c #CFB89D",
"(.	c #E8D0AE",
"_.	c #ECD0B3",
":.	c #EACEAE",
"<.	c #E7CFAE",
"[.	c #E2C9AB",
"}.	c #EBD0B2",
"|.	c #E9CEB0",
"1.	c #E8CDAC",
"2.	c #E2CCAC",
"3.	c #EAD2AC",
"4.	c #C2B091",
"5.	c #D0B89C",
"6.	c #897A66",
"7.	c #9F9483",
"8.	c #756A5C",
"9.	c #111116",
"0.	c #9D9D9C",
"a.	c #8A7C6C",
"b.	c #E2C9A7",
"c.	c #D8BFA3",
"d.	c #E6CDAE",
"e.	c #EACFAC",
"f.	c #E5CAAC",
"g.	c #D2B89B",
"h.	c #EBD0AE",
"i.	c #E5CCA9",
"j.	c #E9CEAB",
"k.	c #E8CEAD",
"l.	c #63594B",
"m.	c #C7C5C3",
"n.	c #83888A",
"o.	c #595240",
"p.	c #E5CBA9",
"q.	c #B39C86",
"r.	c #E9D1B4",
"s.	c #EDD1AC",
"t.	c #EBCFAE",
"u.	c #E9CEAF",
"v.	c #B6A38B",
"w.	c #DBC7A8",
"x.	c #A79F87",
"y.	c #E4CBAE",
"z.	c #D5BFA5",
"A.	c #62655F",
"B.	c #504B49",
"C.	c #AA9884",
"D.	c #99866D",
"E.	c #D9C1A6",
"F.	c #EDD1AE",
"G.	c #ECD1AE",
"H.	c #EBD0AF",
"I.	c #E0C8A9",
"J.	c #B8AA8F",
"K.	c #8D8C7E",
"L.	c #86B2AB",
"M.	c #687E6D",
"N.	c #606358",
"O.	c #565558",
"P.	c #25211D",
"Q.	c #AA9D8A",
"R.	c #CAB297",
"S.	c #ECD0AD",
"T.	c #E9CEAE",
"U.	c #DAC2A3",
"V.	c #DCC19F",
"W.	c #AB9A80",
"X.	c #82AA9D",
"Y.	c #779F9A",
"Z.	c #7DA8A3",
"`.	c #74938B",
" +	c #6E6F6D",
".+	c #2A2B2A",
"++	c #5F5A58",
"@+	c #877866",
"#+	c #D7C1A2",
"$+	c #EAD1AD",
"%+	c #EAD0AD",
"&+	c #EAD2B0",
"*+	c #DAC3A9",
"=+	c #BFAF94",
"-+	c #6D8880",
";+	c #85BBAD",
">+	c #87BAAF",
",+	c #6B7E79",
"'+	c #C5AD95",
")+	c #C2AC92",
"!+	c #383436",
"~+	c #504A44",
"{+	c #60574A",
"]+	c #72685A",
"^+	c #6D6355",
"/+	c #50493E",
"(+	c #473F3C",
"_+	c #606864",
":+	c #545F5D",
"<+	c #78807F",
"[+	c #ACA69E",
"}+	c #D6BDA4",
"|+	c #DEC7A6",
"1+	c #B4ACA7",
"2+	c #747A76",
"3+	c #B6A089",
"4+	c #D7BF9D",
"5+	c #938881",
"6+	c #988874",
"7+	c #CFBAA0",
"8+	c #E8CDAB",
"9+	c #998979",
"0+	c #646669",
"a+	c #AC9B84",
"b+	c #CDB698",
"c+	c #E8CCAC",
"d+	c #A3947F",
"e+	c #B4A28A",
"f+	c #EAD0B1",
"g+	c #E8CEAF",
"h+	c #A09483",
"i+	c #828384",
"j+	c #9B9389",
"k+	c #AA9C86",
"l+	c #A59989",
"m+	c #B7B3AB",
"n+	c #030303",
"o+	c #050505",
"p+	c #060606",
"q+	c #070707",
"r+	c #010101",
"s+	c #020202",
"t+	c #808080",
"                          . + @ # $                             ",
"                      % & * = - ; > , '                         ",
"                    ) ! ~ { ] ^ / ( _ : <                       ",
"                  [ } | 1 2 3 4 5 6 7 8 9                       ",
"                  0 a b c d e f g h i j k l                     ",
"m n o           p q r s t u v w x w y z w A                     ",
"B C D         E F G H I J K L L L M N L L L O                   ",
"P Q R         S T U V W X w Y Z Y `  .Y Z Y ..                  ",
"+.@.#.$.      %.&.*.=.-.;.N Y Z >.,.'.Y Z ).!.                  ",
"~.{.].Z Z Z     ^./.(._.:.<.[.}.|.1.2.3.4.5.6.                  ",
"7.8.9.Z Z Z Z   0.a.b.c.d.e.}.|.f.g.h.i.j.k.l.                  ",
"m.Z Y Y Y Z Z Z n.o.p.q.r.s.t.u.K v.w.x.y.z.A.                  ",
"    Z Z Z Y Y Z Z B.C.D.E.F.G.H.I.J.K.L.M.N.                    ",
"      Z Z Z Z Y Z O.P.Q.R.S.G.T.U.V.W.X.Y.Z.`.                  ",
"          Z Z Z Y  +.+++@+#+$+%+&+*+=+-+;+>+,+Z           '+)+  ",
"            Z Z Z Y Y Z !+~+{+]+^+/+(+_+:+<+Z Z Z Z     [+}+|+1+",
"              Z Z Z Y Z Z Y Z Z Y Z Z Y Z Z 2+Y Z Z Z Z Z 3+4+5+",
"                  Z Y Z Z Y Z Z Y Z Z Y Z Z Z Z Y Y Z Z 6+7+8+9+",
"                  Z Y Z Z Y Z Z Y Z Z Y Z Z Z Z Z Z Y 0+a+b+c+d+",
"                  Z Y Z Z Y Z Z Y Z Z Y Z Z     Z Z Z Y e+f+g+h+",
"                  Z Y Z Z Y Z Z Y Z Z Y Z Z         Z i+j+k+l+m+",
"                  Z Y Z Z Y Z Z Y Z Z Y Z Z                     ",
"                  Z Y Z Z Y Z Z Y Z Z Y Z Z                     ",
"                  Z Y Z Z Y Z Z Y Z Z Y Z Z                     ",
"                  Z Y Z Z Y Z Z Y Z Z Y Z Z                     ",
"                  Z Y Z Z Y Z Z Y Z Z Y Z Z                     ",
"                    Z n+o+o+p+o+q+r+s+Z Z                       ",
"                    Z Z Z Z Z n+n+Z Z Z Z                       ",
"                    Z Z Z Z Z Z Z Z Z Z Z                       ",
"                    Z Z Z Z Z t+Z Z Z Z Z                       ",
"                    Z Z Z Z Z t+Z Z Z Z Z                       ",
"                    Z Z Z Z Z t+Z Z Z Z Z                       "};
