/* XPM */
static char * rwnd_xpm[] = {
"32 32 4 1",
" 	c None",
".	c #020204",
"+	c #DCDA94",
"@	c #8E8E8C",
"                                ",
"                                ",
"                                ",
"                                ",
"                                ",
"                                ",
"                    ..       .. ",
"                  ....     .... ",
"                ...++@   ...++@ ",
"              ...++++@ ...++++@ ",
"            ...++++++...++++++@ ",
"          ...++++++...++++++++@ ",
"        ...++++++...++++++++++@ ",
"      ...++++++...++++++++++++@ ",
"    ...++++++...++++++++++++++@ ",
"  ...++++++...++++++++++++++++@ ",
"  ...++++++...++++++++++++++++@ ",
"    @@@++++++@@@++++++++++++++@ ",
"      @@@++++++@@@++++++++++++@ ",
"        @@@++++++@@@++++++++++@ ",
"          @@@++++++@@@++++++++@ ",
"            @@@++++++@@@++++++@ ",
"              @@@++++@ @@@++++@ ",
"                @@@++@   @@@++@ ",
"                  @@@@     @@@@ ",
"                    @@       @@ ",
"                                ",
"                                ",
"                                ",
"                                ",
"                                ",
"                                "};
