/* XPM */
static char * set_xpm[] = {
"32 32 3 1",
" 	c None",
".	c #F2E943",
"+	c #264DC1",
"                                ",
"                                ",
"               ..               ",
"              ....              ",
"       ...   ......             ",
"      .....  ......             ",
"    .......   ....              ",
"   ........    ..               ",
"   .......                      ",
"   ......  ....            +    ",
"    ..... ......          +++   ",
"          ......         +++++  ",
"          ......        +++++++ ",
"   ....   ......        +++++++ ",
"  ......   ....        +++++++  ",
"  ......              ++++++++  ",
"  ......               ++++++   ",
"  ......                 +++    ",
"    ..                    +     ",
"                                ",
"                                ",
"                            +   ",
"                           ++   ",
"                        +++++   ",
"                      +++++++   ",
"           +++++++     ++++++   ",
"           +++++++      +++++   ",
"           +++++++       ++++   ",
"           +++++++        +++   ",
"           +++++++         ++   ",
"                                ",
"                                "};
