/* XPM */
static char * show_xpm[] = {
"32 32 36 1",
" 	c None",
".	c #EFEF4C",
"+	c #5F5F1E",
"@	c #000000",
"#	c #28280C",
"$	c #9D9D31",
"%	c #E7E749",
"&	c #777726",
"*	c #050501",
"=	c #1E1E09",
"-	c #31310E",
";	c #141406",
">	c #A6A635",
",	c #393912",
"'	c #9A9A30",
")	c #D4D443",
"!	c #CDCD41",
"~	c #434315",
"{	c #131306",
"]	c #61611E",
"^	c #3F3F14",
"/	c #3B3B13",
"(	c #E9E94A",
"_	c #A4A434",
":	c #030301",
"<	c #6C6C22",
"[	c #3B3B12",
"}	c #9A9A31",
"|	c #070702",
"1	c #0A0A03",
"2	c #25250B",
"3	c #101005",
"4	c #61611F",
"5	c #ACAC36",
"6	c #52521A",
"7	c #21210A",
"                                ",
"                                ",
"              ........          ",
"            ..+@@   ..          ",
"          ...#@     ..@         ",
"         ...$@      ..@@        ",
"         ..%@@      .&@         ",
"        ...*@       .=-         ",
"        ..;@      &>@,'....     ",
"       ..)@@     .... @  ...    ",
"       ..!@@    .. @ @@   .     ",
"       ..~@    ..%@@      .@@   ",
"       ..{@    ..;@       .@    ",
"       ..@@   ...]]       .@    ",
"       ..@@   .......!     @    ",
"       ..@@  ..!@@..@@@         ",
"       ..@@  ..=@ ..@@          ",
"       ..@@  ..^  .. @          ",
"       ../   .(@ ..%@           ",
"       ...@  ._@ .. @           ",
"        ..:  .(@ ..&            ",
"         ..< ..@ ..&            ",
"         ......[ ..             ",
"           ......}@             ",
"            |@@1@@@     .       ",
"             ..2@       .       ",
"              ..        .3@     ",
"               ..      ..@@     ",
"               ...    ..4@      ",
"                 ...!567@@      ",
"                 @@@@@@@@       ",
"                  @@            "};
