/* XPM */
static char * stop_tactic_xpm[] = {
"32 32 4 1",
" 	c None",
".	c #FFFFFF",
"+	c #CC2626",
"@	c #D13D3D",
"                                ",
"                                ",
"                                ",
"                                ",
"                                ",
"           ..........           ",
"          ..++++++++..          ",
"         ..++++++++++..         ",
"        ..++++++++++++..        ",
"       ..++++++++++++++..       ",
"      ..++++++++++++++++..      ",
"     ..++++++++++++++++++..     ",
"     .++++++++++++++++++++.     ",
"     .+++..+++.+++++++++++.     ",
"     .++.++.@...++++++++++.     ",
"     .++..++++.+++..++..++.     ",
"     .++++..++.++.++.+.+.+.     ",
"     .++.++.++.++.++.+.+.+.     ",
"     .++...+++..++..@+..++.     ",
"     .++++@+++++++++++.+++.     ",
"     ..+++++++++++++++.++..     ",
"      ..++++++++++++++++..      ",
"       ..++++++++++++++..       ",
"        ..++++++++++++..        ",
"         ..++++++++++..         ",
"          ..++++++++..          ",
"           ..........           ",
"                                ",
"                                ",
"                                ",
"                                ",
"                                "};
